<?xml version="1.0" standalone="no"?>
<!DOCTYPE svg PUBLIC "-//W3C//DTD SVG 20010904//EN"
 "http://www.w3.org/TR/2001/REC-SVG-20010904/DTD/svg10.dtd">
<svg version="1.0" xmlns="http://www.w3.org/2000/svg"
 width="512.000000pt" height="512.000000pt" viewBox="0 0 512.000000 512.000000"
 preserveAspectRatio="xMidYMid meet">

<g transform="translate(0.000000,512.000000) scale(0.100000,-0.100000)"
fill="#000000" stroke="none">
<path d="M2415 5114 c-114 -8 -300 -35 -415 -60 -961 -214 -1720 -973 -1934
-1934 -80 -363 -80 -758 0 -1120 208 -930 938 -1680 1865 -1915 222 -57 334
-69 619 -70 283 0 384 10 595 60 970 229 1731 1018 1919 1991 38 201 49 343
43 573 -10 388 -86 699 -256 1046 -128 260 -281 475 -486 681 -398 400 -918
657 -1475 728 -122 16 -375 26 -475 20z m431 -319 c652 -86 1224 -442 1589
-990 261 -391 388 -844 372 -1320 -11 -332 -81 -613 -226 -910 -158 -322 -387
-601 -663 -808 -386 -288 -807 -437 -1283 -454 -790 -28 -1513 346 -1957 1012
-244 365 -368 784 -368 1239 0 298 44 539 145 801 118 307 276 548 514 786
309 309 657 504 1081 605 223 53 560 70 796 39z"/>
<path d="M2435 4559 c-335 -23 -661 -132 -930 -312 -365 -243 -629 -587 -765
-994 -60 -182 -100 -411 -100 -578 0 -60 3 -69 29 -96 l29 -29 227 0 c182 0
232 3 255 15 53 27 57 115 7 150 -17 12 -57 15 -191 15 l-169 0 7 87 c8 106
47 287 87 398 39 112 87 217 96 212 5 -3 69 -40 143 -83 148 -86 182 -94 224
-55 33 31 40 65 21 104 -12 26 -44 49 -155 112 -77 44 -140 84 -140 89 0 5 25
43 57 85 76 102 259 284 362 360 l83 62 79 -137 c43 -76 86 -146 96 -156 24
-27 93 -24 121 5 45 48 40 70 -52 230 l-85 148 77 36 c104 47 233 90 345 113
103 22 258 41 269 34 5 -3 8 -82 8 -175 0 -167 0 -170 25 -194 16 -17 35 -25
59 -25 86 0 96 23 96 235 l0 166 53 -6 c186 -21 358 -62 497 -118 119 -48 140
-59 140 -69 0 -5 -34 -68 -76 -141 -90 -157 -96 -181 -59 -225 22 -26 34 -32
66 -32 53 0 69 17 158 173 40 70 77 127 82 127 22 0 170 -120 270 -220 92 -91
229 -259 229 -278 0 -4 -64 -43 -142 -87 -117 -67 -143 -86 -155 -113 -21 -50
-2 -99 44 -119 45 -18 55 -15 218 80 l130 76 37 -77 c71 -148 131 -371 144
-539 l7 -83 -172 0 c-169 0 -172 0 -196 -25 -44 -43 -32 -119 22 -144 15 -7
105 -11 249 -11 l226 0 30 31 31 30 -7 122 c-29 553 -278 1046 -706 1399 -285
236 -691 400 -1045 423 -49 3 -110 7 -135 9 -25 2 -94 0 -155 -5z"/>
<path d="M2480 2678 c-111 -521 -121 -557 -159 -597 -143 -152 -110 -401 67
-507 206 -124 470 7 498 248 9 80 -22 179 -77 242 -48 55 -55 79 -169 606 -40
184 -76 338 -80 343 -3 4 -39 -147 -80 -335z"/>
<path d="M1576 1145 c-36 -33 -37 -95 -1 -130 l24 -25 946 0 947 0 29 29 c20
20 29 39 29 61 0 22 -9 41 -29 61 l-29 29 -945 0 -944 0 -27 -25z"/>
<path d="M2123 716 c-37 -32 -39 -93 -4 -130 l24 -26 401 0 c422 1 420 0 444
47 19 35 14 69 -14 102 l-26 31 -398 0 -399 0 -28 -24z"/>
</g>
</svg>
